<?xml version="1.0" standalone="no"?>
<!DOCTYPE svg PUBLIC "-//W3C//DTD SVG 20010904//EN"
 "http://www.w3.org/TR/2001/REC-SVG-20010904/DTD/svg10.dtd">
<svg version="1.0" xmlns="http://www.w3.org/2000/svg"
 width="165.000000pt" height="165.000000pt" viewBox="0 0 165.000000 165.000000"
 preserveAspectRatio="xMidYMid meet">
<metadata>
Created by potrace 1.16, written by Peter Selinger 2001-2019
</metadata>
<g transform="translate(0.000000,165.000000) scale(0.100000,-0.100000)"
fill="#000000" stroke="none">
<path d="M742 1549 c-64 -12 -138 -57 -189 -114 -25 -27 -50 -49 -55 -47 -5 1
-7 -2 -4 -7 4 -5 -3 -33 -15 -63 -17 -41 -22 -80 -25 -173 l-4 -120 16 50 c9
28 19 53 23 58 4 4 13 -29 20 -74 15 -98 26 -123 58 -138 31 -14 138 -14 165
0 11 6 33 39 49 74 16 35 33 66 38 70 12 7 37 -29 46 -68 4 -15 20 -41 35 -57
26 -28 33 -30 102 -30 78 0 109 15 122 57 6 24 26 133 26 148 0 21 -135 27
-238 11 -55 -8 -104 -11 -120 -6 -15 5 -20 9 -12 9 36 2 164 74 211 118 40 38
52 44 60 32 5 -7 9 -17 9 -21 0 -3 23 -31 50 -62 31 -33 58 -75 70 -108 l19
-53 0 75 c1 96 -12 177 -38 230 -11 24 -18 48 -14 54 3 6 3 8 -1 4 -4 -3 -26
14 -49 39 -92 100 -217 139 -355 112z m29 -456 c20 -20 2 -100 -31 -136 -27
-30 -33 -32 -94 -32 -85 0 -99 13 -104 99 -6 86 4 93 126 86 50 -3 96 -10 103
-17z m317 11 c19 -13 22 -24 22 -75 0 -69 -18 -94 -74 -105 -80 -15 -131 15
-156 91 -18 53 -10 77 30 91 51 18 151 17 178 -2z"/>
<path d="M451 950 c-3 -275 223 -537 420 -490 50 12 152 73 179 106 89 112
114 160 135 260 8 38 14 94 14 124 l0 55 -14 -52 c-31 -115 -79 -173 -143
-173 -22 0 -59 13 -98 35 -51 29 -72 35 -121 35 -49 0 -67 -5 -109 -32 -65
-41 -128 -48 -167 -18 -34 27 -55 67 -78 145 l-18 60 0 -55z"/>
<path d="M801 285 c-17 -29 -19 -40 -10 -51 8 -10 10 -46 5 -124 l-7 -110 36
0 36 0 -7 110 c-5 74 -3 114 4 123 8 10 5 23 -12 51 l-23 38 -22 -37z"/>
</g>
</svg>
