<svg width="158" height="37" viewBox="0 0 158 37" fill="none" xmlns="http://www.w3.org/2000/svg">
<path d="M117.115 21.4332V25.5157H115.289V21.7425C115.289 20.7218 114.918 20.227 114.113 20.227C113.184 20.227 112.596 20.9074 112.596 21.9899V25.5157H110.801V18.8043H112.039L112.38 19.6394C112.875 19.0208 113.68 18.6497 114.608 18.6497C116.156 18.6497 117.115 19.7321 117.115 21.4332ZM118.693 22.6703V18.8043H120.519V22.4847C120.519 23.4435 121.015 24.0002 121.85 24.0002C122.686 24.0002 123.181 23.4126 123.181 22.4847V18.8043H125.007V22.6703C125.007 24.4951 123.769 25.7013 121.85 25.7013C119.931 25.7013 118.693 24.4951 118.693 22.6703ZM133.178 22.1445C133.178 22.3301 133.178 22.4847 133.147 22.6703H128.071C128.226 23.5982 128.845 24.093 129.712 24.093C130.331 24.093 130.857 23.7837 131.135 23.3198H133.054C132.559 24.7734 131.29 25.7013 129.712 25.7013C127.731 25.7013 126.214 24.1549 126.214 22.1445C126.214 20.1342 127.7 18.5878 129.712 18.5878C131.754 18.6187 133.178 20.1961 133.178 22.1445ZM128.102 21.4332H131.352C131.104 20.5981 130.516 20.1651 129.681 20.1651C128.876 20.1651 128.319 20.6291 128.102 21.4332ZM136.861 25.7013C135.19 25.7013 134.045 24.7425 134.045 23.2889H135.809C135.809 23.8765 136.273 24.1858 136.923 24.1858C137.418 24.1858 137.882 23.9693 137.882 23.5054C137.882 23.0414 137.294 22.9177 136.583 22.794C135.499 22.6085 134.138 22.3301 134.138 20.7528C134.138 19.4847 135.221 18.6187 136.83 18.6187C138.44 18.6187 139.523 19.5156 139.523 20.8765H137.79C137.79 20.3507 137.418 20.0724 136.768 20.0724C136.211 20.0724 135.871 20.3198 135.871 20.7218C135.871 21.1548 136.459 21.2785 137.14 21.4023C138.223 21.5878 139.647 21.8353 139.647 23.4744C139.678 24.8043 138.532 25.7013 136.861 25.7013ZM145.032 23.9074V25.5157H143.732C142.246 25.5157 141.349 24.6188 141.349 23.1342V20.2888H140.142V19.8868L142.804 17.0723H143.144V18.8352H145.001V20.2888H143.175V22.9177C143.175 23.5672 143.546 23.9384 144.196 23.9384H145.032V23.9074ZM150.324 18.7734V20.4744H149.551C148.529 20.4744 148.127 20.9383 148.127 22.0208V25.5157H146.301V18.8043H147.477L147.786 19.6394C148.251 19.0517 148.87 18.7734 149.736 18.7734H150.324V18.7734ZM150.758 22.1445C150.758 20.1033 152.305 18.5878 154.379 18.5878C156.452 18.5878 158 20.1033 158 22.1445C158 24.1549 156.452 25.7013 154.379 25.7013C152.305 25.7013 150.758 24.1858 150.758 22.1445ZM156.174 22.1445C156.174 21.062 155.431 20.3198 154.379 20.3198C153.327 20.3198 152.584 21.062 152.584 22.1445C152.584 23.227 153.327 23.9693 154.379 23.9693C155.431 24.0002 156.174 23.2579 156.174 22.1445ZM117.982 33.3405C117.982 35.3818 116.496 36.8972 114.453 36.8972C113.649 36.8972 112.906 36.6189 112.349 36.155L112.132 36.7117H110.801V27.5879H112.627V30.3714C113.153 30.0312 113.772 29.8147 114.484 29.8147C116.496 29.7838 117.982 31.2992 117.982 33.3405ZM114.299 35.1653C115.351 35.1653 116.125 34.3921 116.125 33.3405C116.125 32.2889 115.351 31.5157 114.299 31.5157C113.246 31.5157 112.472 32.2889 112.472 33.3405C112.472 34.3921 113.246 35.1653 114.299 35.1653ZM126.121 29.9693V36.6807H124.698L124.543 36.0931C123.955 36.5879 123.212 36.8972 122.376 36.8972C120.365 36.8972 118.848 35.3818 118.848 33.3405C118.848 31.3302 120.365 29.8147 122.376 29.8147C123.243 29.8147 124.017 30.124 124.574 30.6498L124.76 30.0003H126.121V29.9693ZM124.357 33.3405C124.357 32.2889 123.584 31.5157 122.531 31.5157C121.479 31.5157 120.705 32.2889 120.705 33.3405C120.705 34.3921 121.479 35.1653 122.531 35.1653C123.584 35.1653 124.357 34.3921 124.357 33.3405ZM134.199 32.6292V36.7117H132.373V32.9384C132.373 31.9178 132.002 31.423 131.197 31.423C130.269 31.423 129.681 32.1034 129.681 33.1859V36.7117H127.855V30.0003H129.093L129.433 30.8353C129.928 30.2168 130.733 29.8456 131.662 29.8456C133.24 29.8147 134.199 30.9281 134.199 32.6292ZM135.406 33.3096C135.406 31.2992 136.954 29.7838 138.997 29.7838C140.73 29.7838 142.092 30.8972 142.401 32.5364H140.606C140.297 31.8869 139.709 31.4848 138.997 31.4848C138.006 31.4848 137.263 32.2889 137.263 33.3096C137.263 34.3302 138.006 35.1653 138.997 35.1653C139.739 35.1653 140.297 34.7632 140.606 34.0518H142.432C142.123 35.7529 140.73 36.8972 138.997 36.8972C136.954 36.8972 135.406 35.3199 135.406 33.3096ZM143.175 33.3405C143.175 31.2992 144.722 29.7838 146.796 29.7838C148.87 29.7838 150.417 31.2992 150.417 33.3405C150.417 35.3508 148.87 36.8972 146.796 36.8972C144.753 36.8972 143.175 35.3818 143.175 33.3405ZM148.622 33.3405C148.622 32.258 147.879 31.5157 146.827 31.5157C145.775 31.5157 145.032 32.258 145.032 33.3405C145.032 34.423 145.775 35.1653 146.827 35.1653C147.879 35.1962 148.622 34.423 148.622 33.3405Z" fill="#8F1A95"/>
<path d="M18.1677 12.0929V13.4228C16.9606 12.2785 14.887 11.165 11.761 11.165C6.15906 11.165 0 16.1135 0 24.4023C0 32.691 6.15906 36.99 11.761 36.99C14.9179 36.99 16.9606 35.691 18.1677 34.5467L19.9009 36.6807H27.1122V12.0929H18.1677ZM13.5561 28.7322C10.8944 28.7322 8.72791 26.5672 8.72791 23.9074C8.72791 21.2476 10.8944 19.0826 13.5561 19.0826C16.2178 19.0826 18.3843 21.2476 18.3843 23.9074C18.3843 26.5672 16.2178 28.7322 13.5561 28.7322ZM72.485 5.2887C72.485 8.19595 70.1328 10.5774 67.1926 10.5774C64.2833 10.5774 61.9001 8.22687 61.9001 5.2887C61.9001 2.35054 64.2523 0 67.1926 0C70.1328 0.0309281 72.485 2.38146 72.485 5.2887ZM55.153 23.4126V36.6807H46.3013V20.3198C48.9939 21.8971 51.9961 22.9486 55.153 23.4126ZM46.2703 12.1238V9.71142C46.2703 4.9485 50.1391 0.865986 54.8744 0.865986H59.2693V8.62894H57.1028C55.7101 8.62894 55.122 9.80421 55.122 11.165V15.2785C52.9865 14.8146 51.0057 13.9486 49.2106 12.7424C48.344 12.1547 47.2607 11.9692 46.2703 12.1238ZM101.857 36.7117H93.0358V23.7219C93.0358 21.6497 91.3336 19.9486 89.229 19.9795C87.1553 20.0105 85.5459 21.7734 85.5459 23.8456V36.6807H77.0347V12.0929H85.5459V14.629C85.5459 14.629 87.7124 11.4125 92.8811 11.4125C97.895 11.4125 101.64 15.3094 101.826 19.6084V36.7117H101.857ZM41.1636 3.12374V36.6807H32.3428L32.4047 5.38149L41.1636 3.12374ZM71.6184 20.4744V36.6807H62.7976V23.4744C65.9236 23.0105 68.8948 22.0208 71.6184 20.4744Z" fill="#FA4616"/>
<path d="M59.0837 23.7218C53.8531 23.7218 48.9011 22.2063 44.7228 19.361C42.8968 18.1238 42.4325 15.6496 43.6705 13.8248C44.9085 12.0001 47.3845 11.5361 49.2106 12.7733C52.058 14.7217 55.4625 15.7424 59.0527 15.7424C62.6429 15.7424 66.0474 14.7217 68.8948 12.7733C70.7209 11.5361 73.1969 12.0001 74.4349 13.8248C75.6729 15.6496 75.2086 18.1238 73.3826 19.361C69.2662 22.2063 64.3142 23.7218 59.0837 23.7218Z" fill="#8F1A95"/>
</svg>
