<svg width="86" height="33" viewBox="0 0 86 33" fill="none" xmlns="http://www.w3.org/2000/svg">
<g clip-path="url(#clip0)">
<path d="M42.981 7.34543C39.5931 7.34543 36.8419 10.0192 36.8419 13.3155C36.8419 16.6118 39.5919 19.2927 42.981 19.2927C46.3701 19.2927 49.1237 16.6189 49.1237 13.3214C49.1237 10.0239 46.3737 7.35135 42.981 7.35135" fill="#B2292E"/>
<path d="M46.1765 1.31025C46.1765 1.31025 46.0268 1.26527 45.7655 1.19189C47.4671 0.69728 49.1955 0.299344 50.9424 1.234e-07C48.559 -0.0296323 46.1768 0.115951 43.8149 0.435566C43.5274 0.479359 43.2483 0.525519 42.9834 0.574047C42.7161 0.526703 42.4369 0.478175 42.1518 0.435566C39.79 0.115844 37.4077 -0.0297399 35.0244 1.234e-07C36.7705 0.300731 38.4981 0.699851 40.1989 1.19544C39.9364 1.26645 39.7855 1.3138 39.7855 1.3138C30.6137 4.1071 23.706 10.2157 24.2013 15.2199C24.6135 19.3756 28.9696 21.4824 36.0721 20.7639C32.1235 20.068 30.5032 18.1257 30.211 15.1844C29.7631 10.6796 35.0173 5.35225 42.475 2.28317C42.475 2.28317 42.6591 2.21215 42.9822 2.09261C43.3041 2.21097 43.4882 2.28317 43.4882 2.28317C50.946 5.34751 56.1989 10.6749 55.7522 15.1844C55.4624 18.1257 53.8385 20.068 49.8899 20.7639C56.9924 21.4824 61.352 19.3756 61.7619 15.2199C62.2584 10.2157 55.3472 4.1071 46.1753 1.3138" fill="#006241"/>
<path d="M4.53307 27.4217H3.60769L4.00445 25.5658H4.63998C5.56417 25.5658 6.17238 25.6842 6.17238 26.4026C6.17238 27.0193 5.56417 27.417 4.53307 27.417V27.4217ZM3.46395 31.1417H2.80228L3.25131 29.0349H3.84527C4.95478 29.0349 5.53685 29.1533 5.53685 29.9345C5.53685 30.808 4.70532 31.1417 3.46157 31.1417H3.46395ZM6.21159 28.2254V28.1993C7.66559 28.0336 8.63017 27.1341 8.63017 25.9256C8.63017 24.2295 6.97779 23.8709 6.02627 23.8709H1.92917L0 32.8426L4.20283 32.7917C6.31612 32.7657 7.99464 31.8661 7.99464 29.9641C7.99464 28.9758 7.26764 28.3851 6.21277 28.2301" fill="#76777A"/>
<path d="M11.5489 31.4542C11.3537 31.4692 11.1604 31.4079 11.0098 31.2833C10.8593 31.1587 10.7633 30.9806 10.7423 30.7867C10.7423 30.1949 11.5738 29.7984 12.7118 29.8398C12.924 29.8344 13.1363 29.8475 13.3462 29.8788C13.1751 30.7772 12.5669 31.459 11.5489 31.459V31.4542ZM12.8556 25.9978C11.9997 25.9826 11.1474 26.1118 10.3348 26.3801L10.0972 28.0632C10.7826 27.6948 11.5534 27.5132 12.3317 27.5365C13.111 27.5365 13.5992 27.9224 13.5992 28.397C13.6031 28.4877 13.5943 28.5785 13.5731 28.6668C13.2416 28.6408 12.7665 28.6029 12.2913 28.6029C10.1899 28.6029 8.49713 29.4137 8.49713 31.0577C8.49713 32.3597 9.31679 32.9976 10.7969 32.9976C11.7223 32.9976 12.6085 32.6769 13.111 31.9052V31.8815L13.1359 31.9052L13.0302 32.8438H14.9677C15.2302 30.8257 15.8408 29.3237 15.8408 28.2691C15.8408 26.6251 14.4913 25.9943 12.8532 25.9943" fill="#76777A"/>
<path d="M22.1878 25.9943C20.9322 25.9943 20.2183 26.4949 19.5317 27.2406H19.5043L19.6896 26.1493H17.4837C17.4172 26.7529 17.3114 27.3187 17.1927 27.8963L16.1235 32.8426H18.4994L19.1729 29.7593C19.3451 28.7698 19.9379 27.9212 20.9429 27.9212C21.6046 27.8975 21.8671 28.294 21.8671 28.6929C21.848 29.0354 21.7947 29.3752 21.7079 29.7072L21.0498 32.8414H23.5064L24.1407 29.719C24.2592 29.2571 24.3218 28.7826 24.3272 28.3058C24.3272 26.9956 23.5753 25.9931 22.189 25.9931" fill="#76777A"/>
<path d="M29.4947 27.6963C30.0249 27.7058 30.5471 27.8268 31.0271 28.0514L31.5414 26.4464C30.8506 26.1733 30.1175 26.0211 29.3747 25.9966C26.7316 25.9966 24.9343 27.7436 24.9343 29.9428C24.9343 31.6247 26.1756 32.9988 28.1844 32.9988C28.8724 33.0203 29.5595 32.9336 30.2205 32.742L30.565 31.0104C30.0799 31.2139 29.5576 31.3147 29.0314 31.3063C28.0252 31.3063 27.3909 30.6506 27.3909 29.8528C27.3909 28.4656 28.264 27.6951 29.4947 27.6951" fill="#76777A"/>
<path d="M34.9662 31.3773C34.1596 31.3891 33.6702 30.7855 33.6702 29.8871C33.6702 28.8219 34.3829 27.6122 35.534 27.6122C36.4582 27.6122 36.7754 28.268 36.7754 28.9604C36.7754 30.4766 36.0757 31.3773 34.9662 31.3773ZM35.6528 25.9931C32.955 25.9931 31.2112 27.5862 31.2112 29.938C31.2112 31.6199 32.2435 32.9953 34.7939 32.9953C37.3705 32.9953 39.2343 31.775 39.2343 28.9864C39.2343 27.3033 37.9906 25.9931 35.6528 25.9931Z" fill="#76777A"/>
<path d="M46.1836 29.2349L48.1401 25.7256H48.1662L48.563 29.2349H46.1836ZM46.9367 23.8768L41.4581 32.8426H44.1285L45.2249 30.9275H48.8065L49.0571 32.8426H51.5422L50.036 23.8744L46.9367 23.8768Z" fill="#76777A"/>
<path d="M52.9107 27.8442H55.8567L52.1029 31.0944L51.7584 32.8414H57.7455L58.1019 31.1453H54.9587L58.7386 27.8963L59.108 26.1481H53.2659L52.9107 27.8442Z" fill="#76777A"/>
<path d="M62.7941 27.7673H64.5249L64.816 26.147H63.1778L63.653 24.0532L61.1418 24.7089L60.8103 26.147H59.4502L59.158 27.7673H60.429L60.018 29.6433C59.8966 30.0921 59.8257 30.553 59.8066 31.0175C59.8066 32.4177 60.7711 32.9965 61.9876 32.9965C62.4835 32.9908 62.9783 32.9477 63.4677 32.8674L63.7326 31.3382C63.4875 31.4452 63.2261 31.5104 62.9593 31.5312C62.8653 31.5399 62.7706 31.53 62.6805 31.502C62.5904 31.474 62.5068 31.4285 62.4345 31.368C62.3623 31.3076 62.3028 31.2334 62.2595 31.1499C62.2162 31.0663 62.19 30.9751 62.1824 30.8814C62.18 30.8498 62.18 30.8182 62.1824 30.7867C62.2105 30.3954 62.2765 30.0077 62.3796 29.6291L62.7941 27.7673Z" fill="#76777A"/>
<path d="M66.9696 28.8598C67.0658 28.4715 67.2929 28.1279 67.613 27.8866C67.933 27.6453 68.3266 27.5208 68.7277 27.5341C69.5997 27.5341 69.8907 28.1389 69.8907 28.8598H66.9696ZM68.7016 25.9943C65.6356 25.9943 64.5784 28.3839 64.5784 29.938C64.5784 31.6199 65.8197 32.9964 68.1183 32.9964C68.9334 32.9809 69.7426 32.8555 70.5239 32.6236L70.828 30.9902C70.1491 31.2886 69.4163 31.4461 68.6743 31.453C67.2203 31.453 66.8508 30.8896 66.8235 30.1688H71.7011C71.7936 29.7547 71.8496 29.3333 71.8686 28.9095C71.8686 26.8796 70.506 25.9931 68.698 25.9931" fill="#76777A"/>
<path d="M77.0135 27.6963C77.5437 27.7058 78.0659 27.8268 78.5459 28.0514L79.0614 26.4464C78.3707 26.1729 77.6376 26.0207 76.8947 25.9966C74.2504 25.9966 72.4531 27.7436 72.4531 29.9416C72.4531 31.6235 73.6944 32.9988 75.7044 32.9988C76.392 33.0197 77.0786 32.933 77.7393 32.742L78.0838 31.0068C77.5991 31.2102 77.0772 31.311 76.5514 31.3027C75.5452 31.3027 74.9109 30.647 74.9109 29.8493C74.9109 28.4621 75.784 27.6916 77.0135 27.6916" fill="#76777A"/>
<path d="M81.7034 31.4542C81.5083 31.4695 81.3149 31.4082 81.1645 31.2836C81.014 31.1589 80.9184 30.9806 80.898 30.7867C80.898 30.1949 81.7295 29.7984 82.8663 29.8398C83.0789 29.8344 83.2915 29.8475 83.5019 29.8788C83.3296 30.7772 82.7202 31.459 81.7045 31.459L81.7034 31.4542ZM83.0112 25.9978C82.1544 25.9836 81.3013 26.114 80.4881 26.3837L80.2505 28.0668C80.9355 27.6984 81.7058 27.5167 82.4838 27.5401C83.2655 27.5401 83.7525 27.9259 83.7525 28.4005C83.7575 28.4913 83.7487 28.5823 83.7264 28.6704C83.3961 28.6444 82.921 28.6065 82.4458 28.6065C80.3432 28.6065 78.6516 29.4172 78.6516 31.0613C78.6516 32.3632 79.4725 33.0012 80.9514 33.0012C81.8768 33.0012 82.7618 32.6804 83.2655 31.9087V31.8851L83.2904 31.9087L83.1847 32.8473H85.1281C85.3906 30.8293 86.0012 29.3273 86.0012 28.2727C86.0012 26.6287 84.6506 25.9978 83.0112 25.9978Z" fill="#76777A"/>
</g>
<defs>
<clipPath id="clip0">
<rect width="86" height="33" fill="white"/>
</clipPath>
</defs>
</svg>
